{"title":"Star Parivaar Awards 2012 Red Carpet 24th March","uid":7128657,"size":146093933,"categoryP":"video","categoryS":"tv_shows","magnet":"?xt=urn:btih:50485afcca4227917efd13dc082bf676c10d58a5&amp;dn=Star+Parivaar+Awards+2012+Red+Carpet+24th+March&amp;tr=udp%3A%2F%2Ftracker.openbittorrent.com%3A80&amp;tr=udp%3A%2F%2Fopen.demonii.com%3A1337&amp;tr=udp%3A%2F%2Ftracker.coppersurfer.tk%3A6969&amp;tr=udp%3A%2F%2Fexodus.desync.com%3A6969","seeders":4,"leechers":0,"uploader":"arsenal_rocks","files":3,"time":1332619309,"description":" &lt;a href=&quot;\nhttp://i.minus.com/jYXGAQlhCtATj.jpg&quot; rel=&quot;nofollow&quot; target=&quot;_NEW&quot;&gt;\nhttp://i.minus.com/jYXGAQlhCtATj.jpg&lt;/a&gt;\n\nGeneral\nComplete name                            : Star Parivaar Awards 2012 Red Carpet 24th March.wmv\nFormat                                   : Windows Media\nFile size                                : 139 MiB\nDuration                                 : 37mn 43s\nOverall bit rate mode                    : Constant\nOverall bit rate                         : 516 Kbps\nMaximum Overall bit rate                 : 521 Kbps\nEncoded date                             : UTC 2012-03-24 14:34:20.515\n\nVideo\nID                                       : 2\nFormat                                   : VC-1\nFormat profile                           : MP@LL\nCodec ID                                 : WMV3\nCodec ID/Info                            : Windows Media Video 9\nCodec ID/Hint                            : WMV3\nDescription of the codec                 : Windows Media Video 9\nDuration                                 : 37mn 43s\nBit rate mode                            : Constant\nBit rate                                 : 448 Kbps\nWidth                                    : 320 pixels\nHeight                                   : 240 pixels\nDisplay aspect ratio                     : 4:3\nFrame rate                               : 25.000 fps\nBit depth                                : 8 bits\nScan type                                : Progressive\nCompression mode                         : Lossy\nBits/(Pixel*Frame)                       : 0.233\nStream size                              : 121 MiB (87%)\n\nAudio\nID                                       : 1\nFormat                                   : WMA\nFormat version                           : Version 2\nCodec ID                                 : 161\nCodec ID/Info                            : Windows Media Audio\nDescription of the codec                 : Windows Media Audio 9.2 -  64 kbps, 44 kHz, stereo (A/V) 1-pass CBR\nDuration                                 : 37mn 43s\nBit rate mode                            : Constant\nBit rate                                 : 64.0 Kbps\nChannel(s)                               : 2 channels\nSampling rate                            : 44.1 KHz\nBit depth                                : 16 bits\nStream size                              : 17.3 MiB (12%)\n\n &lt;a href=&quot;\nhttp://i.minus.com/jHvtl3MuQhsS6.jpg&quot; rel=&quot;nofollow&quot; target=&quot;_NEW&quot;&gt;\nhttp://i.minus.com/jHvtl3MuQhsS6.jpg&lt;/a&gt;\n &lt;a href=&quot;\nhttp://i.minus.com/jbdy4dIfjMkrDT.PNG&quot; rel=&quot;nofollow&quot; target=&quot;_NEW&quot;&gt;\nhttp://i.minus.com/jbdy4dIfjMkrDT.PNG&lt;/a&gt;","torrent":{"xt":"urn:btih:50485afcca4227917efd13dc082bf676c10d58a5","amp;dn":"Star+Parivaar+Awards+2012+Red+Carpet+24th+March","amp;tr":["udp%3A%2F%2Ftracker.openbittorrent.com%3A80","udp%3A%2F%2Fopen.demonii.com%3A1337","udp%3A%2F%2Ftracker.coppersurfer.tk%3A6969","udp%3A%2F%2Fexodus.desync.com%3A6969"],"infoHash":"50485afcca4227917efd13dc082bf676c10d58a5","infoHashBuffer":{"type":"Buffer","data":[80,72,90,252,202,66,39,145,126,253,19,220,8,43,246,118,193,13,88,165]},"announce":[],"urlList":[]}}